<svg width="12" height="12" viewBox="0 0 12 12" fill="none" xmlns="http://www.w3.org/2000/svg">
<path fill-rule="evenodd" clip-rule="evenodd" d="M10.1935 3.96987C10.4866 3.67671 10.962 3.67671 11.2551 3.96987C11.5483 4.26304 11.5483 4.73835 11.2551 5.03152L6.53032 9.75631C6.23743 10.0492 5.76256 10.0492 5.46966 9.75631L0.744867 5.03152C0.451703 4.73835 0.451703 4.26304 0.744867 3.96987C1.03803 3.67671 1.51334 3.67671 1.80651 3.96987L5.99999 8.16336L10.1935 3.96987Z" fill="black"/>
<mask id="mask0_19332_20124" style="mask-type:luminance" maskUnits="userSpaceOnUse" x="0" y="3" width="12" height="7">
<path fill-rule="evenodd" clip-rule="evenodd" d="M10.1935 3.96987C10.4866 3.67671 10.962 3.67671 11.2551 3.96987C11.5483 4.26304 11.5483 4.73835 11.2551 5.03152L6.53032 9.75631C6.23743 10.0492 5.76256 10.0492 5.46966 9.75631L0.744867 5.03152C0.451703 4.73835 0.451703 4.26304 0.744867 3.96987C1.03803 3.67671 1.51334 3.67671 1.80651 3.96987L5.99999 8.16336L10.1935 3.96987Z" fill="white"/>
</mask>
<g mask="url(#mask0_19332_20124)">
<path fill-rule="evenodd" clip-rule="evenodd" d="M0 0H12V12H0V0Z" fill="#687385"/>
</g>
</svg>
