<svg width="14" height="16" viewBox="0 0 14 16" fill="none" xmlns="http://www.w3.org/2000/svg">
<path d="M13.2155 10.2975L12 9.06599V5C12 2.23858 9.76143 0 7 0C4.23858 0 2 2.23858 2 5V9.06599L0.784489 10.2975C0.599781 10.4847 0.496216 10.7371 0.496216 11C0.496216 11.5523 0.943931 12 1.49622 12H12.5038C12.7667 12 13.0191 11.8964 13.2062 11.7117C13.5993 11.3238 13.6035 10.6906 13.2155 10.2975Z" fill="#545969"/>
<path d="M7 16C8.20948 16 9.21836 15.1411 9.44999 14H4.55001C4.78164 15.1411 5.79052 16 7 16Z" fill="#545969"/>
</svg>
