<svg width="10" height="13" viewBox="0 0 10 13" fill="none" xmlns="http://www.w3.org/2000/svg">
<path d="M3.47998 2C3.47998 1.17157 4.15155 0.5 4.97998 0.5C5.80841 0.5 6.47998 1.17157 6.47998 2C6.47998 2.41421 6.14419 2.75 5.72998 2.75H4.22998C3.81577 2.75 3.47998 2.41421 3.47998 2Z" fill="#8792A2"/>
<path d="M7.97998 2C7.97998 3.24264 6.97262 4.25 5.72998 4.25H4.22998C2.98734 4.25 1.97998 3.24264 1.97998 2C1.15155 2 0.47998 2.67157 0.47998 3.5V11C0.47998 11.8284 1.15155 12.5 1.97998 12.5H7.97998C8.80841 12.5 9.47998 11.8284 9.47998 11V3.5C9.47998 2.67157 8.80841 2 7.97998 2Z" fill="#8792A2"/>
</svg>
