<svg width="12" height="10" viewBox="0 0 12 10" fill="none" xmlns="http://www.w3.org/2000/svg">
<path d="M7.5 5C7.5 5.82843 6.82843 6.5 6 6.5C5.17157 6.5 4.5 5.82843 4.5 5C4.5 4.17157 5.17157 3.5 6 3.5C6.82843 3.5 7.5 4.17157 7.5 5Z" fill="#8792A2"/>
<path fill-rule="evenodd" clip-rule="evenodd" d="M6 9.5C9.31371 9.5 12 5.98528 12 5C12 4.01472 9.31371 0.5 6 0.5C2.68629 0.5 0 4.01472 0 5C0 5.98528 2.68629 9.5 6 9.5ZM6 8C7.65685 8 9 6.65685 9 5C9 3.34315 7.65685 2 6 2C4.34315 2 3 3.34315 3 5C3 6.65685 4.34315 8 6 8Z" fill="#8792A2"/>
</svg>
