<svg width="13" height="3" viewBox="0 0 13 3" fill="none" xmlns="http://www.w3.org/2000/svg">
<path d="M2.47998 3C3.30841 3 3.97998 2.32843 3.97998 1.5C3.97998 0.671573 3.30841 0 2.47998 0C1.65155 0 0.97998 0.671573 0.97998 1.5C0.97998 2.32843 1.65155 3 2.47998 3Z" fill="#4F566B"/>
<path d="M6.97998 3C7.80841 3 8.47998 2.32843 8.47998 1.5C8.47998 0.671573 7.80841 0 6.97998 0C6.15155 0 5.47998 0.671573 5.47998 1.5C5.47998 2.32843 6.15155 3 6.97998 3Z" fill="#4F566B"/>
<path d="M12.98 1.5C12.98 2.32843 12.3084 3 11.48 3C10.6516 3 9.97998 2.32843 9.97998 1.5C9.97998 0.671573 10.6516 0 11.48 0C12.3084 0 12.98 0.671573 12.98 1.5Z" fill="#4F566B"/>
</svg>
