<svg width="13" height="10" viewBox="0 0 13 10" fill="none" xmlns="http://www.w3.org/2000/svg">
<path fill-rule="evenodd" clip-rule="evenodd" d="M2.48004 0.25H11.48C11.8943 0.25 12.23 0.585786 12.23 1V1.75H1.73004V1C1.73004 0.585786 2.06583 0.25 2.48004 0.25ZM1.73004 2.5H12.23C12.6443 2.5 12.98 2.80526 12.98 3.18182V9.31818C12.98 9.69474 12.6443 10 12.23 10H1.73004C1.31583 10 0.980042 9.69474 0.980042 9.31818V3.18182C0.980042 2.80526 1.31583 2.5 1.73004 2.5ZM8.85504 6.25C8.85504 7.28553 8.01558 8.125 6.98004 8.125C5.94451 8.125 5.10504 7.28553 5.10504 6.25C5.10504 5.21447 5.94451 4.375 6.98004 4.375C8.01558 4.375 8.85504 5.21447 8.85504 6.25Z" fill="#8792A2"/>
</svg>
