<svg width="12" height="11" viewBox="0 0 12 11" fill="none" xmlns="http://www.w3.org/2000/svg">
<path fill-rule="evenodd" clip-rule="evenodd" d="M7.85498 3.25C9.92605 3.25 11.605 4.92893 11.605 7C11.605 9.07107 9.92605 10.75 7.85498 10.75C7.44077 10.75 7.10498 10.4142 7.10498 10C7.10498 9.58579 7.44077 9.25 7.85498 9.25C9.09762 9.25 10.105 8.24264 10.105 7C10.105 5.75736 9.09762 4.75 7.85498 4.75C7.71775 4.75 2.91564 4.74448 2.91564 4.74448L4.81729 6.64613C5.11018 6.93902 5.11018 7.4139 4.81729 7.70679C4.5244 7.99968 4.04952 7.99968 3.75663 7.70679L0.57465 4.52481C0.438927 4.38909 0.35498 4.20159 0.35498 3.99448C0.35498 3.78737 0.438927 3.59987 0.57465 3.46415L3.75663 0.28217C4.04952 -0.0107233 4.5244 -0.0107233 4.81729 0.28217C5.11018 0.575063 5.11018 1.04994 4.81729 1.34283L2.91564 3.24448L7.85498 3.25Z" fill="#4F566B"/>
</svg>
